<?xml version="1.0" standalone="no"?>
<!DOCTYPE svg PUBLIC "-//W3C//DTD SVG 20010904//EN"
 "http://www.w3.org/TR/2001/REC-SVG-20010904/DTD/svg10.dtd">
<svg version="1.0" xmlns="http://www.w3.org/2000/svg"
 width="1000.000000pt" height="1000.000000pt" viewBox="0 0 1000.000000 1000.000000"
 preserveAspectRatio="xMidYMid meet">

<g transform="translate(0.000000,1000.000000) scale(0.100000,-0.100000)"
fill="#000000" stroke="none">
<path d="M0 5000 l0 -5000 5000 0 5000 0 0 5000 0 5000 -5000 0 -5000 0 0
-5000z m7585 3070 c348 -19 407 -35 445 -123 36 -84 55 -306 55 -642 0 -323
-7 -401 -56 -649 -113 -573 -399 -1133 -814 -1589 -105 -115 -318 -325 -414
-407 -86 -74 -339 -269 -426 -328 -38 -26 -133 -92 -210 -146 -215 -152 -494
-340 -558 -376 -32 -18 -56 -34 -54 -36 4 -5 302 83 527 154 102 33 186 58
188 57 3 -2 -34 -227 -79 -475 -21 -120 -36 -174 -53 -200 -27 -41 -40 -49
-511 -314 -192 -109 -379 -215 -415 -236 -192 -112 -213 -122 -248 -122 -27 0
-42 7 -61 28 l-24 29 6 382 c3 211 2 385 -2 388 -5 2 -48 -12 -97 -31 -80 -33
-96 -36 -159 -32 -76 5 -132 29 -240 101 -48 32 -214 164 -235 187 -3 3 -58
54 -123 114 -188 174 -400 415 -503 571 -74 113 -105 188 -111 265 -5 56 -1
76 26 145 17 44 31 83 31 88 0 4 -176 7 -392 7 -388 0 -392 0 -415 22 -49 46
-50 44 362 773 34 61 97 173 140 250 96 172 116 200 163 223 23 12 216 49 504
98 l467 79 23 40 c109 196 385 543 575 726 322 309 608 500 1033 692 146 65
449 161 645 203 213 45 488 80 695 87 41 2 86 4 100 5 14 1 111 -3 215 -8z
m-4175 -3900 c0 -12 -5 -97 -11 -191 l-10 -171 -37 -31 c-139 -120 -265 -308
-326 -488 -22 -64 -54 -204 -62 -271 -6 -57 -6 -58 19 -58 47 0 203 31 282 56
190 61 358 164 486 301 l67 71 158 6 c88 4 172 10 188 13 28 5 29 4 23 -26 -9
-44 -94 -222 -161 -335 -163 -277 -393 -504 -680 -671 -307 -179 -729 -307
-1137 -345 -189 -18 -194 -12 -174 185 22 213 44 334 101 539 179 648 535
1095 1079 1355 197 94 195 93 195 61z"/>
<path d="M6990 7820 c-441 -67 -813 -184 -1150 -361 -134 -71 -369 -225 -455
-299 -144 -125 -196 -174 -275 -261 -82 -90 -80 -93 15 -16 161 129 442 300
729 444 327 164 626 286 1046 429 135 46 236 83 225 83 -11 -1 -72 -9 -135
-19z"/>
<path d="M4985 5799 c-136 -16 -251 -58 -355 -129 -307 -208 -415 -588 -258
-902 50 -100 153 -211 252 -272 444 -274 1046 -19 1150 486 40 194 -7 390
-131 553 -140 182 -416 293 -658 264z m240 -280 c70 -26 104 -47 164 -103 85
-81 131 -186 131 -305 0 -259 -220 -471 -490 -471 -185 0 -348 98 -420 253
-123 261 36 568 333 643 74 19 207 11 282 -17z"/>
</g>
</svg>
